<svg
    xmlns="http://www.w3.org/2000/svg"
    id="Layer_1"
    data-name="Layer 1"
    viewBox="0 0 383.7 384.1"
    fill="red"
  >
    <path
      d="M416.4,94.2H95.1A31.07,31.07,0,0,0,64,125.3V416.8a31.28,31.28,0,0,0,31.3,31.3h321a31.3,31.3,0,0,0,31.4-31.3V125.5A31.28,31.28,0,0,0,416.4,94.2Zm14.2,322.4a14.3,14.3,0,0,1-14.3,14.3l-182,.1H95.3A14.3,14.3,0,0,1,81,416.7V192l349.6.1V416.6Zm0-240.5L81,176V125.2a14.08,14.08,0,0,1,14.1-14.1H416.4a14.19,14.19,0,0,1,14.2,14.2Z"
      transform="translate(-64 -64)"
    />
    <path
      d="M168,143.6h0a8.49,8.49,0,0,1-8.5-8.5V72.5A8.49,8.49,0,0,1,168,64h0a8.49,8.49,0,0,1,8.5,8.5v62.6A8.49,8.49,0,0,1,168,143.6Z"
      transform="translate(-64 -64)"
    />
    <path
      d="M343.5,143.6h0a8.49,8.49,0,0,1-8.5-8.5V72.5a8.49,8.49,0,0,1,8.5-8.5h0a8.49,8.49,0,0,1,8.5,8.5v62.6A8.49,8.49,0,0,1,343.5,143.6Z"
      transform="translate(-64 -64)"
    />
  </svg>